<?xml version="1.0" encoding="utf-8"?><svg xmlns="http://www.w3.org/2000/svg" xmlns:xlink="http://www.w3.org/1999/xlink" width="1376" height="466" preserveAspectRatio="xMidYMid" viewBox="0 0 1376 466" style="z-index:1;margin-right:-2px;display:block;background-repeat-y:initial;background-repeat-x:initial;background-color:rgb(241, 242, 243);animation-play-state:paused" ><g transform="" style="animation-play-state:paused" ><path id="path0" d="M 673.1164616879809 430.63778547621797
c 0 26.564240309516844 -6.499760926796673 7.630154131456965 -14.129915058253639 7.630154131456965
S 644.8566315714735 457.2020257857348 644.8566315714735 430.63778547621797
s 6.499760926796673 -7.630154131456965 14.129915058253639 -7.630154131456965
S 673.1164616879809 404.07354516670114 673.1164616879809 430.63778547621797
z" fill="none" stroke="none" style="animation-play-state:paused" ></path>


<circle cx="0" cy="0" r="3.7285605057789732" fill="#194645" transform="translate(656.4998168945312 438.8774108886719)" style="animation-play-state:paused" ></circle>
<path id="path1" d="M 529.3680751077034 194.66059214341718
c 0 19.11818987543849 -4.6778549695221825 5.491394964221693 -10.169249933743876 5.491394964221693
S 509.0295752402156 213.77878201885568 509.0295752402156 194.66059214341718
s 4.6778549695221825 -5.491394964221693 10.169249933743876 -5.491394964221693
S 529.3680751077034 175.54240226797867 529.3680751077034 194.66059214341718
z" fill="none" stroke="none" style="animation-play-state:paused" ></path>


<circle cx="0" cy="0" r="4.368715371025102" fill="#df1317" transform="translate(527.412841796875 204.8470001220703)" style="animation-play-state:paused" ></circle>
<path id="path2" d="M 547.1445963884743 125.1026604678724
c 0 33.188458396296646 -8.12058024590237 9.532855071276696 -17.653435317179067 9.532855071276696
S 511.83772575411615 158.29111886416905 511.83772575411615 125.1026604678724
s 8.12058024590237 -9.532855071276696 17.653435317179067 -9.532855071276696
S 547.1445963884743 91.91420207157574 547.1445963884743 125.1026604678724
z" fill="none" stroke="none" style="animation-play-state:paused" ></path>


<circle cx="0" cy="0" r="2.624844386081924" fill="#0a69aa" transform="translate(542.6578979492188 107.54666900634766)" style="animation-play-state:paused" ></circle>
<path id="path3" d="M 509.17057658461226 228.99828888368526
c 0 34.72579695584773 -8.49673755302657 9.974431040509453 -18.47116859353602 9.974431040509453
S 472.2282393975403 263.724085839533 472.2282393975403 228.99828888368526
s 8.49673755302657 -9.974431040509453 18.47116859353602 -9.974431040509453
S 509.17057658461226 194.27249192783754 509.17057658461226 228.99828888368526
z" fill="none" stroke="none" style="animation-play-state:paused" ></path>


<circle cx="0" cy="0" r="3.753387448637379" fill="#07abcc" transform="translate(508.76287841796875 239.63409423828125)" style="animation-play-state:paused" ></circle>
<path id="path4" d="M 152.53217115902893 330.10597301140035
c 0 33.32567939237604 -8.154155596006902 9.572269612703755 -17.72642520871066 9.572269612703755
S 117.07932074160763 363.4316524037764 117.07932074160763 330.10597301140035
s 8.154155596006902 -9.572269612703755 17.72642520871066 -9.572269612703755
S 152.53217115902893 296.7802936190243 152.53217115902893 330.10597301140035
z" fill="none" stroke="none" style="animation-play-state:paused" ></path>


<circle cx="0" cy="0" r="2.9017977653592197" fill="#194645" transform="translate(151.73472595214844 343.2673645019531)" style="animation-play-state:paused" ></circle>
<path id="path5" d="M 545.7039936924842 106.39147061144695
c 0 28.127980204065796 -6.882378135037375 8.079313462869964 -14.961691597907338 8.079313462869964
S 515.7806104966695 134.51945081551276 515.7806104966695 106.39147061144695
s 6.882378135037375 -8.079313462869964 14.961691597907338 -8.079313462869964
S 545.7039936924842 78.26349040738116 545.7039936924842 106.39147061144695
z" fill="none" stroke="none" style="animation-play-state:paused" ></path>


<circle cx="0" cy="0" r="4.458449321434233" fill="#0a69aa" transform="translate(536.4050903320312 117.09688568115234)" style="animation-play-state:paused" ></circle>
<path id="path6" d="M 771.7788425230988 386.97868692432814
c 0 37.33059488612329 -9.1340817274557 10.722617680056691 -19.85669940751239 10.722617680056691
S 732.0654437080741 424.30928181045147 732.0654437080741 386.97868692432814
s 9.1340817274557 -10.722617680056691 19.85669940751239 -10.722617680056691
S 771.7788425230988 349.6480920382048 771.7788425230988 386.97868692432814
z" fill="none" stroke="none" style="animation-play-state:paused" ></path>


<circle cx="0" cy="0" r="2.3134333379775507" fill="#e1e7e7" transform="translate(748.5328979492188 398.5095520019531)" style="animation-play-state:paused" ></circle>
<path id="path7" d="M 1092.7327405154517 294.17776574522395
c 0 29.797009083614817 -7.290757541735539 8.558715375080853 -15.849472916816392 8.558715375080853
S 1061.0337946818188 323.97477482883875 1061.0337946818188 294.17776574522395
s 7.290757541735539 -8.558715375080853 15.849472916816392 -8.558715375080853
S 1092.7327405154517 264.38075666160915 1092.7327405154517 294.17776574522395
z" fill="none" stroke="none" style="animation-play-state:paused" ></path>


<circle cx="0" cy="0" r="3.363492781671218" fill="#e1e7e7" transform="translate(1062.248046875 307.9220275878906)" style="animation-play-state:paused" ></circle>
<path id="path8" d="M 97.04390796627007 27.62072286737347
c 0 27.559637384182103 -6.743315530172216 7.91606605715869 -14.659381587330905 7.91606605715869
S 67.72514479160827 55.18036025155557 67.72514479160827 27.62072286737347
s 6.743315530172216 -7.91606605715869 14.659381587330905 -7.91606605715869
S 97.04390796627007 0.06108548319136631 97.04390796627007 27.62072286737347
z" fill="none" stroke="none" style="animation-play-state:paused" ></path>


<circle cx="0" cy="0" r="2.892161518621038" fill="#0a69aa" transform="translate(89.29668426513672 39.25558853149414)" style="animation-play-state:paused" ></circle>
<path id="path9" d="M 1076.3125221143143 364.193231748289
c 0 26.851455711582744 -6.570037035812798 7.712652172475894 -14.282689208288692 7.712652172475894
S 1047.7471436977369 391.04468745987174 1047.7471436977369 364.193231748289
s 6.570037035812798 -7.712652172475894 14.282689208288692 -7.712652172475894
S 1076.3125221143143 337.3417760367063 1076.3125221143143 364.193231748289
z" fill="none" stroke="none" style="animation-play-state:paused" ></path>


<circle cx="0" cy="0" r="2.7037886079527227" fill="#e2bb8b" transform="translate(1072.8580322265625 378.4497375488281)" style="animation-play-state:paused" ></circle>
<path id="path10" d="M 1282.8720140737319 376.5967710797022
c 0 29.60917936833068 -7.244799207144739 8.504764286648173 -15.749563493792913 8.504764286648173
S 1251.372887086146 406.20595044803287 1251.372887086146 376.5967710797022
s 7.244799207144739 -8.504764286648173 15.749563493792913 -8.504764286648173
S 1282.8720140737319 346.9875917113715 1282.8720140737319 376.5967710797022
z" fill="none" stroke="none" style="animation-play-state:paused" ></path>


<circle cx="0" cy="0" r="3.7199705983546307" fill="#df1317" transform="translate(1281.1221923828125 361.770263671875)" style="animation-play-state:paused" ></circle>
<path id="path11" d="M 59.725342615342 279.72809153251785
c 0 25.568409193352377 -6.256100121777709 7.344117534260789 -13.600217656038499 7.344117534260789
S 32.524907303264996 305.2965007258702 32.524907303264996 279.72809153251785
s 6.256100121777709 -7.344117534260789 13.600217656038499 -7.344117534260789
S 59.725342615342 254.15968233916547 59.725342615342 279.72809153251785
z" fill="none" stroke="none" style="animation-play-state:paused" ></path>


<circle cx="0" cy="0" r="4.390236359155428" fill="#194645" transform="translate(53.56266403198242 268.0458984375)" style="animation-play-state:paused" ></circle>
<path id="path12" d="M 1093.6415169615022 150.36126859712604
c 0 23.153228499686133 -5.665151654178521 6.650395420122613 -12.315547074301135 6.650395420122613
S 1069.0104228129 173.51449709681216 1069.0104228129 150.36126859712604
s 5.665151654178521 -6.650395420122613 12.315547074301135 -6.650395420122613
S 1093.6415169615022 127.2080400974399 1093.6415169615022 150.36126859712604
z" fill="none" stroke="none" style="animation-play-state:paused" ></path>


<circle cx="0" cy="0" r="2.9478901132524475" fill="#e4934b" transform="translate(1075.86328125 140.88282775878906)" style="animation-play-state:paused" ></circle>
<path id="path13" d="M 909.7078476038863 80.33112103149253
c 0 30.971830989240605 -7.578213965452488 8.896164220313791 -16.474378185766277 8.896164220313791
S 876.7590912323539 111.30295202073313 876.7590912323539 80.33112103149253
s 7.578213965452488 -8.896164220313791 16.474378185766277 -8.896164220313791
S 909.7078476038863 49.35929004225193 909.7078476038863 80.33112103149253
z" fill="none" stroke="none" style="animation-play-state:paused" ></path>


<circle cx="0" cy="0" r="2.6877690223875748" fill="#e2bb8b" transform="translate(909.0259399414062 68.43070983886719)" style="animation-play-state:paused" ></circle>
<path id="path14" d="M 1038.8687056589806 64.30091163550716
c 0 32.59827335375707 -7.976173267408644 9.363333835653627 -17.33950710306227 9.363333835653627
S 1004.1896914528561 96.89918498926423 1004.1896914528561 64.30091163550716
s 7.976173267408644 -9.363333835653627 17.33950710306227 -9.363333835653627
S 1038.8687056589806 31.70263828175009 1038.8687056589806 64.30091163550716
z" fill="none" stroke="none" style="animation-play-state:paused" ></path>


<circle cx="0" cy="0" r="4.158793544250071" fill="#91bcc6" transform="translate(1038.8248291015625 60.41465759277344)" style="animation-play-state:paused" ></circle>
<path id="path15" d="M 220.765683353662 65.0171331843015
c 0 35.18873167870039 -8.610008815001159 10.107401652392666 -18.717410467393826 10.107401652392666
S 183.33086241887437 100.20586486300189 183.33086241887437 65.0171331843015
s 8.610008815001159 -10.107401652392666 18.717410467393826 -10.107401652392666
S 220.765683353662 29.828401505601107 220.765683353662 65.0171331843015
z" fill="none" stroke="none" style="animation-play-state:paused" ></path>


<circle cx="0" cy="0" r="4.17128024660664" fill="#e1e7e7" transform="translate(193.724365234375 79.44085693359375)" style="animation-play-state:paused" ></circle>
<path id="path16" d="M 243.48965780728216 306.3689218666167
c 0 37.05928968963987 -9.067698541082093 10.644689591705069 -19.71238813278716 10.644689591705069
S 204.06488154170782 343.42821155625654 204.06488154170782 306.3689218666167
s 9.067698541082093 -10.644689591705069 19.71238813278716 -10.644689591705069
S 243.48965780728216 269.30963217697683 243.48965780728216 306.3689218666167
z" fill="none" stroke="none" style="animation-play-state:paused" ></path>


<circle cx="0" cy="0" r="4.264759371155174" fill="#e4934b" transform="translate(204.0773162841797 308.6324157714844)" style="animation-play-state:paused" ></circle>
<path id="path17" d="M 1026.4858198895197 90.88099378414904
c 0 20.91895843444372 -5.118468553108569 6.008636997127452 -11.12710555023602 6.008636997127452
S 1004.2316087890476 111.79995221859276 1004.2316087890476 90.88099378414904
s 5.118468553108569 -6.008636997127452 11.12710555023602 -6.008636997127452
S 1026.4858198895197 69.96203534970532 1026.4858198895197 90.88099378414904
z" fill="none" stroke="none" style="animation-play-state:paused" ></path>


<circle cx="0" cy="0" r="3.8922067216918506" fill="#e4934b" transform="translate(1004.251708984375 88.74847412109375)" style="animation-play-state:paused" ></circle>
<path id="path18" d="M 1159.7965113502235 254.2731896411115
c 0 26.60810851877377 -6.510494637572304 7.642754574541401 -14.153249212113705 7.642754574541401
S 1131.490012925996 280.88129815988526 1131.490012925996 254.2731896411115
s 6.510494637572304 -7.642754574541401 14.153249212113705 -7.642754574541401
S 1159.7965113502235 227.6650811223377 1159.7965113502235 254.2731896411115
z" fill="none" stroke="none" style="animation-play-state:paused" ></path>


<circle cx="0" cy="0" r="3.444828537514312" fill="#194645" transform="translate(1131.930419921875 263.5326232910156)" style="animation-play-state:paused" ></circle>
<path id="path19" d="M 423.19228059484715 168.5602309805152
c 0 21.69431214540944 -5.30818275898316 6.231344977936755 -11.539527736919915 6.231344977936755
S 400.1132251210073 190.25454312592464 400.1132251210073 168.5602309805152
s 5.30818275898316 -6.231344977936755 11.539527736919915 -6.231344977936755
S 423.19228059484715 146.86591883510576 423.19228059484715 168.5602309805152
z" fill="none" stroke="none" style="animation-play-state:paused" ></path>


<circle cx="0" cy="0" r="3.316290709597687" fill="#e1e7e7" transform="translate(414.6360168457031 175.8142852783203)" style="animation-play-state:paused" ></circle>
<path id="path20" d="M 1158.9330605570262 454.31118559807675
c 0 25.97248235887842 -6.354969087810677 7.460181103082099 -13.815150190892776 7.460181103082099
S 1131.3027601752406 480.2836679569552 1131.3027601752406 454.31118559807675
s 6.354969087810677 -7.460181103082099 13.815150190892776 -7.460181103082099
S 1158.9330605570262 428.3387032391983 1158.9330605570262 454.31118559807675
z" fill="none" stroke="none" style="animation-play-state:paused" ></path>


<circle cx="0" cy="0" r="4.144776981096461" fill="#91bcc6" transform="translate(1158.8721923828125 458.31884765625)" style="animation-play-state:paused" ></circle></g></svg>